<?xml version="1.0" encoding="utf-8" ?>
<svg baseProfile="tiny" height="100%" version="1.2" width="100%" xmlns="http://www.w3.org/2000/svg" xmlns:ev="http://www.w3.org/2001/xml-events" xmlns:xlink="http://www.w3.org/1999/xlink"><defs /><circle cx="0.0" cy="0.0" fill="white" r="15.0mm" stroke="black" stroke-width="0.001mm" /><rect fill="white" height="6.0mm" stroke="black" stroke-width="0.001mm" transform="rotate(0.0,0.0,0.0)" width="0.5mm" x="-0.25mm" y="-14.0mm" /><rect fill="white" height="6.0mm" stroke="black" stroke-width="0.001mm" transform="rotate(6.0,0.0,0.0)" width="0.5mm" x="-0.25mm" y="-14.0mm" /><rect fill="white" height="6.0mm" stroke="black" stroke-width="0.001mm" transform="rotate(12.0,0.0,0.0)" width="0.5mm" x="-0.25mm" y="-14.0mm" /><rect fill="white" height="6.0mm" stroke="black" stroke-width="0.001mm" transform="rotate(18.0,0.0,0.0)" width="0.5mm" x="-0.25mm" y="-14.0mm" /><rect fill="white" height="6.0mm" stroke="black" stroke-width="0.001mm" transform="rotate(24.0,0.0,0.0)" width="0.5mm" x="-0.25mm" y="-14.0mm" /><rect fill="white" height="6.0mm" stroke="black" stroke-width="0.001mm" transform="rotate(30.0,0.0,0.0)" width="0.5mm" x="-0.25mm" y="-14.0mm" /><rect fill="white" height="6.0mm" stroke="black" stroke-width="0.001mm" transform="rotate(36.0,0.0,0.0)" width="0.5mm" x="-0.25mm" y="-14.0mm" /><rect fill="white" height="6.0mm" stroke="black" stroke-width="0.001mm" transform="rotate(42.0,0.0,0.0)" width="0.5mm" x="-0.25mm" y="-14.0mm" /><rect fill="white" height="6.0mm" stroke="black" stroke-width="0.001mm" transform="rotate(48.0,0.0,0.0)" width="0.5mm" x="-0.25mm" y="-14.0mm" /><rect fill="white" height="6.0mm" stroke="black" stroke-width="0.001mm" transform="rotate(54.0,0.0,0.0)" width="0.5mm" x="-0.25mm" y="-14.0mm" /><rect fill="white" height="6.0mm" stroke="black" stroke-width="0.001mm" transform="rotate(60.0,0.0,0.0)" width="0.5mm" x="-0.25mm" y="-14.0mm" /><rect fill="white" height="6.0mm" stroke="black" stroke-width="0.001mm" transform="rotate(66.0,0.0,0.0)" width="0.5mm" x="-0.25mm" y="-14.0mm" /><rect fill="white" height="6.0mm" stroke="black" stroke-width="0.001mm" transform="rotate(72.0,0.0,0.0)" width="0.5mm" x="-0.25mm" y="-14.0mm" /><rect fill="white" height="6.0mm" stroke="black" stroke-width="0.001mm" transform="rotate(78.0,0.0,0.0)" width="0.5mm" x="-0.25mm" y="-14.0mm" /><rect fill="white" height="6.0mm" stroke="black" stroke-width="0.001mm" transform="rotate(84.0,0.0,0.0)" width="0.5mm" x="-0.25mm" y="-14.0mm" /><rect fill="white" height="6.0mm" stroke="black" stroke-width="0.001mm" transform="rotate(90.0,0.0,0.0)" width="0.5mm" x="-0.25mm" y="-14.0mm" /><rect fill="white" height="6.0mm" stroke="black" stroke-width="0.001mm" transform="rotate(96.0,0.0,0.0)" width="0.5mm" x="-0.25mm" y="-14.0mm" /><rect fill="white" height="6.0mm" stroke="black" stroke-width="0.001mm" transform="rotate(102.0,0.0,0.0)" width="0.5mm" x="-0.25mm" y="-14.0mm" /><rect fill="white" height="6.0mm" stroke="black" stroke-width="0.001mm" transform="rotate(108.0,0.0,0.0)" width="0.5mm" x="-0.25mm" y="-14.0mm" /><rect fill="white" height="6.0mm" stroke="black" stroke-width="0.001mm" transform="rotate(114.0,0.0,0.0)" width="0.5mm" x="-0.25mm" y="-14.0mm" /><rect fill="white" height="6.0mm" stroke="black" stroke-width="0.001mm" transform="rotate(120.0,0.0,0.0)" width="0.5mm" x="-0.25mm" y="-14.0mm" /><rect fill="white" height="6.0mm" stroke="black" stroke-width="0.001mm" transform="rotate(126.0,0.0,0.0)" width="0.5mm" x="-0.25mm" y="-14.0mm" /><rect fill="white" height="6.0mm" stroke="black" stroke-width="0.001mm" transform="rotate(132.0,0.0,0.0)" width="0.5mm" x="-0.25mm" y="-14.0mm" /><rect fill="white" height="6.0mm" stroke="black" stroke-width="0.001mm" transform="rotate(138.0,0.0,0.0)" width="0.5mm" x="-0.25mm" y="-14.0mm" /><rect fill="white" height="6.0mm" stroke="black" stroke-width="0.001mm" transform="rotate(144.0,0.0,0.0)" width="0.5mm" x="-0.25mm" y="-14.0mm" /><rect fill="white" height="6.0mm" stroke="black" stroke-width="0.001mm" transform="rotate(150.0,0.0,0.0)" width="0.5mm" x="-0.25mm" y="-14.0mm" /><rect fill="white" height="6.0mm" stroke="black" stroke-width="0.001mm" transform="rotate(156.0,0.0,0.0)" width="0.5mm" x="-0.25mm" y="-14.0mm" /><rect fill="white" height="6.0mm" stroke="black" stroke-width="0.001mm" transform="rotate(162.0,0.0,0.0)" width="0.5mm" x="-0.25mm" y="-14.0mm" /><rect fill="white" height="6.0mm" stroke="black" stroke-width="0.001mm" transform="rotate(168.0,0.0,0.0)" width="0.5mm" x="-0.25mm" y="-14.0mm" /><rect fill="white" height="6.0mm" stroke="black" stroke-width="0.001mm" transform="rotate(174.0,0.0,0.0)" width="0.5mm" x="-0.25mm" y="-14.0mm" /><rect fill="white" height="6.0mm" stroke="black" stroke-width="0.001mm" transform="rotate(180.0,0.0,0.0)" width="0.5mm" x="-0.25mm" y="-14.0mm" /><rect fill="white" height="6.0mm" stroke="black" stroke-width="0.001mm" transform="rotate(186.0,0.0,0.0)" width="0.5mm" x="-0.25mm" y="-14.0mm" /><rect fill="white" height="6.0mm" stroke="black" stroke-width="0.001mm" transform="rotate(192.0,0.0,0.0)" width="0.5mm" x="-0.25mm" y="-14.0mm" /><rect fill="white" height="6.0mm" stroke="black" stroke-width="0.001mm" transform="rotate(198.0,0.0,0.0)" width="0.5mm" x="-0.25mm" y="-14.0mm" /><rect fill="white" height="6.0mm" stroke="black" stroke-width="0.001mm" transform="rotate(204.0,0.0,0.0)" width="0.5mm" x="-0.25mm" y="-14.0mm" /><rect fill="white" height="6.0mm" stroke="black" stroke-width="0.001mm" transform="rotate(210.0,0.0,0.0)" width="0.5mm" x="-0.25mm" y="-14.0mm" /><rect fill="white" height="6.0mm" stroke="black" stroke-width="0.001mm" transform="rotate(216.0,0.0,0.0)" width="0.5mm" x="-0.25mm" y="-14.0mm" /><rect fill="white" height="6.0mm" stroke="black" stroke-width="0.001mm" transform="rotate(222.0,0.0,0.0)" width="0.5mm" x="-0.25mm" y="-14.0mm" /><rect fill="white" height="6.0mm" stroke="black" stroke-width="0.001mm" transform="rotate(228.0,0.0,0.0)" width="0.5mm" x="-0.25mm" y="-14.0mm" /><rect fill="white" height="6.0mm" stroke="black" stroke-width="0.001mm" transform="rotate(234.0,0.0,0.0)" width="0.5mm" x="-0.25mm" y="-14.0mm" /><rect fill="white" height="6.0mm" stroke="black" stroke-width="0.001mm" transform="rotate(240.0,0.0,0.0)" width="0.5mm" x="-0.25mm" y="-14.0mm" /><rect fill="white" height="6.0mm" stroke="black" stroke-width="0.001mm" transform="rotate(246.0,0.0,0.0)" width="0.5mm" x="-0.25mm" y="-14.0mm" /><rect fill="white" height="6.0mm" stroke="black" stroke-width="0.001mm" transform="rotate(252.0,0.0,0.0)" width="0.5mm" x="-0.25mm" y="-14.0mm" /><rect fill="white" height="6.0mm" stroke="black" stroke-width="0.001mm" transform="rotate(258.0,0.0,0.0)" width="0.5mm" x="-0.25mm" y="-14.0mm" /><rect fill="white" height="6.0mm" stroke="black" stroke-width="0.001mm" transform="rotate(264.0,0.0,0.0)" width="0.5mm" x="-0.25mm" y="-14.0mm" /><rect fill="white" height="6.0mm" stroke="black" stroke-width="0.001mm" transform="rotate(270.0,0.0,0.0)" width="0.5mm" x="-0.25mm" y="-14.0mm" /><rect fill="white" height="6.0mm" stroke="black" stroke-width="0.001mm" transform="rotate(276.0,0.0,0.0)" width="0.5mm" x="-0.25mm" y="-14.0mm" /><rect fill="white" height="6.0mm" stroke="black" stroke-width="0.001mm" transform="rotate(282.0,0.0,0.0)" width="0.5mm" x="-0.25mm" y="-14.0mm" /><rect fill="white" height="6.0mm" stroke="black" stroke-width="0.001mm" transform="rotate(288.0,0.0,0.0)" width="0.5mm" x="-0.25mm" y="-14.0mm" /><rect fill="white" height="6.0mm" stroke="black" stroke-width="0.001mm" transform="rotate(294.0,0.0,0.0)" width="0.5mm" x="-0.25mm" y="-14.0mm" /><rect fill="white" height="6.0mm" stroke="black" stroke-width="0.001mm" transform="rotate(300.0,0.0,0.0)" width="0.5mm" x="-0.25mm" y="-14.0mm" /><rect fill="white" height="6.0mm" stroke="black" stroke-width="0.001mm" transform="rotate(306.0,0.0,0.0)" width="0.5mm" x="-0.25mm" y="-14.0mm" /><rect fill="white" height="6.0mm" stroke="black" stroke-width="0.001mm" transform="rotate(312.0,0.0,0.0)" width="0.5mm" x="-0.25mm" y="-14.0mm" /><rect fill="white" height="6.0mm" stroke="black" stroke-width="0.001mm" transform="rotate(318.0,0.0,0.0)" width="0.5mm" x="-0.25mm" y="-14.0mm" /><rect fill="white" height="6.0mm" stroke="black" stroke-width="0.001mm" transform="rotate(324.0,0.0,0.0)" width="0.5mm" x="-0.25mm" y="-14.0mm" /><rect fill="white" height="6.0mm" stroke="black" stroke-width="0.001mm" transform="rotate(330.0,0.0,0.0)" width="0.5mm" x="-0.25mm" y="-14.0mm" /><rect fill="white" height="6.0mm" stroke="black" stroke-width="0.001mm" transform="rotate(336.0,0.0,0.0)" width="0.5mm" x="-0.25mm" y="-14.0mm" /><rect fill="white" height="6.0mm" stroke="black" stroke-width="0.001mm" transform="rotate(342.0,0.0,0.0)" width="0.5mm" x="-0.25mm" y="-14.0mm" /><rect fill="white" height="6.0mm" stroke="black" stroke-width="0.001mm" transform="rotate(348.0,0.0,0.0)" width="0.5mm" x="-0.25mm" y="-14.0mm" /><rect fill="white" height="6.0mm" stroke="black" stroke-width="0.001mm" transform="rotate(354.0,0.0,0.0)" width="0.5mm" x="-0.25mm" y="-14.0mm" /><circle cx="0.0" cy="0.0" fill="white" r="2.4mm" stroke="black" stroke-width="0.001mm" /><rect fill="white" height="1.6mm" stroke="black" stroke-width="0.001mm" width="6.0mm" x="-3.0mm" y="-0.8mm" /><rect fill="white" height="1.6mm" stroke="black" stroke-width="0.001mm" transform="rotate(90)" width="6.0mm" x="-3.0mm" y="-0.8mm" /></svg>